<svg width="512" height="512" xmlns="http://www.w3.org/2000/svg">
 <g id="Layer_1">
  <title>Layer 1</title>
  <ellipse stroke="#b2b2b2" ry="208.96946" rx="218.99999" id="svg_1" cy="259.96946" cx="251.99999" opacity="NaN" fill="#ffffaa"/>
  <path id="svg_3" d="m82.38498,173.49949l55.52232,0l0,-50.23448l56.95536,0l0,50.23448l55.52233,0l0,51.53104l-55.52233,0l0,50.23448l-56.95536,0l0,-50.23448l-55.52232,0l0,-51.53104z" fill="#ffe100"/>
  <path id="svg_4" d="m249.66003,310.82314l33.94286,-32.48817l36.05697,34.5114l36.05697,-34.5114l33.94317,32.48817l-36.05698,34.51168l36.05698,34.51168l-33.94317,32.48848l-36.05697,-34.51169l-36.05697,34.51169l-33.94286,-32.48848l36.05667,-34.51168l-36.05667,-34.51168z" fill="#00bf00"/>
  <path id="svg_5" d="m110.49499,326.83697l103,0l0,36l-103,0l0,-36z" fill="#ffaa56"/>
  <path id="svg_6" d="m340.56967,132.42499l0,0c10.14133,0 18.3625,7.44091 18.3625,16.61973c0,9.17883 -8.22117,16.61973 -18.3625,16.61973c-10.14134,0 -18.3625,-7.4409 -18.3625,-16.61973c0,-9.17883 8.22116,-16.61973 18.3625,-16.61973zm0,108c-10.14134,0 -18.3625,-7.4409 -18.3625,-16.61974c0,-9.17882 8.22116,-16.61973 18.3625,-16.61973c10.14133,0 18.3625,7.44091 18.3625,16.61973c0,9.17883 -8.22117,16.61974 -18.3625,16.61974zm-54.00001,-70.61974l108.00002,0l0,33.23947l-108.00002,0l0,-33.23947z" fill="#ff5656"/>
 </g>
</svg>