<svg width="512" height="512" xmlns="http://www.w3.org/2000/svg">
 <g id="Layer_1">
  <title>Layer 1</title>
  <g id="svg_25">
   <path stroke="#cc8833" stroke-width="5" id="svg_22" d="m254.31801,272.54876l54.13717,-81l-55.46012,-172.97378l-2.23135,251.97378l1.93133,1.87624l0.30002,92.09463l145.20062,106.90537l-104.74894,-141.97379l-39.12873,-56.90245z" fill="#ffd000"/>
   <path stroke-width="5" stroke="#cc8833" id="svg_11" d="m250.1579,273.54876l-54.92153,-81l56.26365,-172.97378l2.26368,251.97378l-1.95931,1.87623l-0.30437,92.09464l-147.30434,106.90536l106.26657,-141.97378l39.69565,-56.90245z" fill="#ffe000"/>
   <path transform="rotate(72 255.98 193)" stroke-width="5" stroke="#cc8833" id="svg_20" d="m327.1579,220.54876l-54.92153,-81l56.26365,-172.97378l2.26368,251.97378l-1.95931,1.87624l-0.30437,92.09463l-147.30434,106.90537l106.26658,-141.97379l39.69564,-56.90245z" fill="#ffd000"/>
   <path transform="rotate(144 324.98 246)" stroke-width="5" stroke="#cc8833" id="svg_21" d="m396.1579,273.54876l-54.92153,-81l56.26365,-172.97378l2.26368,251.97378l-1.95931,1.87624l-0.30437,92.09463l-147.30434,106.90537l106.26658,-141.97379l39.69564,-56.90245z" fill="#ffd000"/>
   <path transform="rotate(72 300.48 329)" stroke="#cc8833" stroke-width="5" id="svg_23" d="m230.31801,356.54876l54.13717,-81l-55.46012,-172.97378l-2.23136,251.97378l1.93133,1.87624l0.30003,92.09463l145.20061,106.90537l-104.74893,-141.97379l-39.12873,-56.90245z" fill="#ffe000"/>
   <path transform="rotate(144 209.48 334)" stroke="#cc8833" stroke-width="5" id="svg_24" d="m139.31801,361.54876l54.13717,-81l-55.46012,-172.97378l-2.23136,251.97378l1.93133,1.87624l0.30003,92.09463l145.20061,106.90537l-104.74893,-141.97379l-39.12873,-56.90245z" fill="#ffe000"/>
  </g>
 </g>
</svg>